#!OML:ASF F:\twosubjects\two\wednesday\Session 1\rory1.ASF
:FULLY-SPECIFIED
:DEGREES
33
root 2.11664 18.0869 -12.5669 5.22331 2.25565 7.67627
lowerback 2.73264 -1.55088 -8.15374
upperback 1.55709 -2.24948 -0.625619
thorax 0.369799 -1.1814 3.96759
lowerneck -12.5866 -0.923211 -0.264285
upperneck 14.7692 -1.05812 -0.876979
head 6.56635 -0.599942 -0.335801
rclavicle 9.34288e-015 -3.49861e-014
rhumerus -57.8025 -31.5032 -49.1382
rradius 17.6493
rwrist 22.7165
rhand -12.4029 31.8201
rfingers 7.12502
rthumb 13.6687 2.28893
lclavicle 9.34288e-015 -3.49861e-014
lhumerus -42.6508 -28.1551 69.8366
lradius 87.1228
lwrist 11.7087
lhand -29.2592 8.76934
lfingers 7.12502
lthumb -2.60199 38.7332
rfemur -34.4788 5.15436 10.7888
rtibia 35.0245
rfoot -10.0454 -12.6319
rtoes 6.13332
lfemur 1.50981 -3.99703 -30.6719
ltibia 15.6768
lfoot -12.4745 -5.72452
ltoes -9.39509
34
root 2.11117 18.0884 -12.403 5.50581 2.55403 7.97806
lowerback 2.57686 -1.60173 -8.43358
upperback 1.54645 -2.30808 -0.5899
thorax 0.467532 -1.21645 4.15618
lowerneck -12.6623 -0.943426 -0.556723
upperneck 14.8398 -1.06145 -0.673439
head 6.60501 -0.600875 -0.22366
rclavicle -6.02815e-014 1.19271e-015
rhumerus -58.0412 -32.4436 -47.9147
rradius 17.2456
rwrist 24.152
rhand -12.049 31.4045
rfingers 7.12502
rthumb 14.0098 1.89664
lclavicle -6.02815e-014 1.19271e-015
lhumerus -42.5979 -28.4705 70.2729
lradius 87.1215
lwrist 12.29
lhand -29.5273 8.61714
lfingers 7.12502
lthumb -2.86094 38.5777
rfemur -34.4034 5.63728 10.1743
rtibia 31.951
rfoot -8.61521 -13.0957
rtoes 4.37211
lfemur 2.51342 -3.86558 -30.8705
ltibia 14.2671
lfoot -11.8348 -6.01593
ltoes -10.0342
35
root 2.1041 18.0847 -12.2338 5.58638 2.82262 8.04442
lowerback 2.62085 -1.70181 -8.56152
upperback 1.60653 -2.44495 -0.518407
thorax 0.532966 -1.29066 4.30313
lowerneck -12.9155 -0.886224 -0.670716
upperneck 14.929 -0.986924 -0.504885
head 6.679 -0.557379 -0.145575
rclavicle -1.31198e-014 2.3059e-014
rhumerus -58.0548 -33.0971 -47.2274
rradius 16.9668
rwrist 25.4831
rhand -11.802 31.5948
rfingers 7.12502
rthumb 14.2478 2.10356
lclavicle -1.31198e-014 2.3059e-014
lhumerus -42.6805 -28.5804 70.5488
lradius 87.2204
lwrist 12.9885
lhand -29.0759 8.78188
lfingers 7.12502
lthumb -2.42501 38.7478
rfemur -34.0858 6.35131 9.78088
rtibia 28.9048
rfoot -8.40806 -13.51
rtoes 4.21327
lfemur 3.65973 -3.74067 -30.8167
ltibia 13.0458
lfoot -11.2926 -6.24029
ltoes -10.2575
36
root 2.0993 18.093 -12.059 5.71973 3.12506 7.95002
lowerback 2.4903 -1.79573 -8.48288
upperback 1.65453 -2.5526 -0.460183
thorax 0.670029 -1.35111 4.31433
lowerneck -12.9109 -0.875148 -0.490707
upperneck 14.7632 -1.00907 -0.501236
head 6.62391 -0.557177 -0.175377
rclavicle 2.20651e-014 2.10712e-014
rhumerus -57.9467 -33.4083 -47.1494
rradius 16.9255
rwrist 25.9275
rhand -11.4518 31.7354
rfingers 7.12502
rthumb 14.5852 2.26819
lclavicle 2.20651e-014 2.10712e-014
lhumerus -42.6255 -28.808 70.5949
lradius 87.1763
lwrist 13.0808
lhand -28.2488 9.21474
lfingers 7.12502
lthumb -1.62616 39.1883
rfemur -33.7432 7.27082 9.46463
rtibia 25.8595
rfoot -8.5408 -14.3011
rtoes 3.32801
lfemur 4.55187 -3.52624 -30.5543
ltibia 12.1245
lfoot -10.7099 -6.55326
ltoes -11.0496
37
root 2.0955 18.1117 -11.8826 5.94022 3.43744 7.88354
lowerback 2.25253 -1.87303 -8.38858
upperback 1.65778 -2.63009 -0.396664
thorax 0.815975 -1.39532 4.31852
lowerneck -12.766 -0.867119 -0.323078
upperneck 14.5153 -1.02005 -0.578299
head 6.51807 -0.559144 -0.226864
rclavicle -4.87022e-015 -1.07344e-014
rhumerus -57.708 -33.5295 -47.257
rradius 16.9013
rwrist 25.8055
rhand -10.9357 31.8541
rfingers 7.12502
rthumb 15.0825 2.42358
lclavicle -4.87022e-015 -1.07344e-014
lhumerus -42.676 -29.1021 70.7526
lradius 87.1106
lwrist 12.737
lhand -28.207 9.84054
lfingers 7.12502
lthumb -1.58581 39.8144
rfemur -33.4731 8.33027 9.02599
rtibia 22.9765
rfoot -8.44102 -15.3383
rtoes 2.87724
lfemur 5.24606 -3.32983 -30.2801
ltibia 11.2145
lfoot -9.85791 -7.02661
ltoes -10.6605
38
root 2.09364 18.1324 -11.6991 6.01493 3.71815 7.79563
lowerback 2.0854 -1.92078 -8.25382
upperback 1.70683 -2.6732 -0.300346
thorax 0.964712 -1.4236 4.33543
lowerneck -12.4834 -0.908226 -0.253589
upperneck 14.0624 -1.06941 -0.717909
head 6.32363 -0.589855 -0.283932
rclavicle -4.70126e-014 1.03368e-014
rhumerus -57.2877 -33.4049 -47.5974
rradius 16.8148
rwrist 25.4585
rhand -10.8356 32.0611
rfingers 7.12502
rthumb 15.1789 2.63782
lclavicle -4.70126e-014 1.03368e-014
lhumerus -42.6183 -29.1941 70.9734
lradius 87.0266
lwrist 12.5071
lhand -27.2102 10.0583
lfingers 7.12502
lthumb -0.623123 40.0371
rfemur -33.1899 9.64169 8.48935
rtibia 20.5257
rfoot -8.84861 -16.5346
rtoes 5.91159
lfemur 6.33409 -3.60137 -30.0479
ltibia 9.94405
lfoot -8.99086 -7.09881
ltoes -9.11038
